<svg width="63" height="62" viewBox="0 0 63 62" fill="none" xmlns="http://www.w3.org/2000/svg">
<g clip-path="url(#clip0_95_58)">
<rect x="0.5" width="62" height="62" rx="31" fill="white" fill-opacity="0.01"/>
<g clip-path="url(#clip1_95_58)">
<g clip-path="url(#clip2_95_58)">
<g clip-path="url(#clip3_95_58)">
<mask id="mask0_95_58" style="mask-type:luminance" maskUnits="userSpaceOnUse" x="0" y="0" width="63" height="62">
<path d="M62.167 31C62.167 13.8792 48.2878 0 31.167 0C14.0462 0 0.166992 13.8792 0.166992 31C0.166992 48.1208 14.0462 62 31.167 62C48.2878 62 62.167 48.1208 62.167 31Z" fill="white"/>
</mask>
<g mask="url(#mask0_95_58)">
<path d="M62.167 31C62.167 13.8792 48.2878 0 31.167 0C14.0462 0 0.166992 13.8792 0.166992 31C0.166992 48.1208 14.0462 62 31.167 62C48.2878 62 62.167 48.1208 62.167 31Z" fill="url(#paint0_linear_95_58)"/>
<path d="M-43.8301 -50.3701H-53.8301V-40.2871M-43.8301 -50.3701V-40.2871M-43.8301 -50.3701H-33.8301M-53.8301 -40.2871H-43.8301M-53.8301 -40.2871V-30.2031M-43.8301 -40.2871H-33.8301M-43.8301 -40.2871V-30.2031M-33.8301 -50.3701V-40.2871M-33.8301 -50.3701H-23.8301M-33.8301 -40.2871H-23.8301M-33.8301 -40.2871V-30.2031M-23.8301 -50.3701V-40.2871M-23.8301 -50.3701H-13.8301M-23.8301 -40.2871H-13.8301M-23.8301 -40.2871V-30.2031M-13.8301 -50.3701V-40.2871M-13.8301 -50.3701H-3.83008M-13.8301 -40.2871H-3.83008M-13.8301 -40.2871V-30.2031M-3.83008 -50.3701V-40.2871M-3.83008 -50.3701H6.16992M-3.83008 -40.2871H6.16992M-3.83008 -40.2871V-30.2031M6.16992 -50.3701V-40.2871M6.16992 -50.3701H16.1709M6.16992 -40.2871H16.1709M6.16992 -40.2871L6.17092 -30.2031M16.1709 -50.3701V-40.2871M16.1709 -50.3701H26.1709M16.1709 -40.2871H26.1709M16.1709 -40.2871V-30.2031M6.17092 -30.2031H-3.82808M6.17092 -30.2031H16.1709M6.17092 -30.2031L6.17192 -20.1201M26.1709 -50.3701V-40.2871M26.1709 -50.3701H36.1709M26.1709 -40.2871H36.1709M26.1709 -40.2871V-30.2031M16.1709 -30.2031H26.1709M16.1709 -30.2031L16.1719 -20.1201M36.1709 -50.3701V-40.2871M36.1709 -50.3701H46.1709M36.1709 -40.2871H46.1709M36.1709 -40.2871V-30.2031M26.1709 -30.2031H36.1709M26.1709 -30.2031L26.1719 -20.1201M46.1709 -50.3701V-40.2871M46.1709 -50.3701H56.1709M46.1709 -40.2871H56.1709M46.1709 -40.2871V-30.2031M36.1709 -30.2031H46.1709M36.1709 -30.2031L36.1719 -20.1201M56.1709 -50.3701V-40.2871M56.1709 -50.3701H66.1709M56.1709 -40.2871H66.1709M56.1709 -40.2871V-30.2031M46.1709 -30.2031H56.1709M46.1709 -30.2031L46.1719 -20.1201M66.1709 -50.3701V-40.2871M66.1709 -50.3701H76.1709M66.1709 -40.2871H76.1709M66.1709 -40.2871V-30.2031M56.1709 -30.2031H66.1709M56.1709 -30.2031L56.1719 -20.1201M76.1709 -50.3701V-40.2871M76.1709 -50.3701H86.1709M76.1709 -40.2871H86.1709M76.1709 -40.2871V-30.2031M66.1709 -30.2031H76.1709M66.1709 -30.2031L66.1719 -20.1201M86.1709 -50.3701V-40.2871M86.1709 -50.3701H96.1709M86.1709 -40.2871H96.1709M86.1709 -40.2871V-30.2031M76.1709 -30.2031H86.1709M76.1709 -30.2031L76.1719 -20.1201M96.1709 -50.3701V-40.2871M96.1709 -50.3701H106.172M96.1709 -40.2871H106.172M96.1709 -40.2871L96.1719 -30.2031M86.1709 -30.2031H96.1719M86.1709 -30.2031L86.1719 -20.1201M106.172 -50.3701V-40.2871M106.172 -50.3701H116.172V-40.2871M106.172 -40.2871H116.172M106.172 -40.2871V-30.2031M96.1719 -30.2031H106.172M96.1719 -30.2031V-20.1201M116.172 -40.2871V-30.2031M106.172 -30.2031H116.172M106.172 -30.2031V-20.1201M116.172 -30.2031V-20.1201M-43.8281 -30.2031H-53.8281V-20.1201M-43.8281 -30.2031H-33.8281M-43.8281 -30.2031V-20.1201M-33.8281 -30.2031H-23.8281M-33.8281 -30.2031V-20.1201M-43.8281 -20.1201H-53.8281M-43.8281 -20.1201H-33.8281M-43.8281 -20.1201V-10.0371M-53.8281 -20.1201V-10.0371M-23.8281 -30.2031H-13.8281M-23.8281 -30.2031V-20.1201M-33.8281 -20.1201H-23.8281M-33.8281 -20.1201V-10.0371M-13.8281 -30.2031H-3.82808M-13.8281 -30.2031V-20.1201M-23.8281 -20.1201H-13.8281M-23.8281 -20.1201V-10.0371M-3.82808 -30.2031V-20.1201M-13.8281 -20.1201H-3.82808M-13.8281 -20.1201V-10.0371M-3.82808 -20.1201H6.17192M-3.82808 -20.1201V-10.0371M6.17192 -20.1201H16.1719M6.17192 -20.1201V-10.0371M16.1719 -20.1201H26.1719M16.1719 -20.1201V-10.0371M26.1719 -20.1201H36.1719M26.1719 -20.1201V-10.0371M36.1719 -20.1201H46.1719M36.1719 -20.1201V-10.0371M46.1719 -20.1201H56.1719M46.1719 -20.1201V-10.0371M56.1719 -20.1201H66.1719M56.1719 -20.1201V-10.0371M66.1719 -20.1201H76.1719M66.1719 -20.1201V-10.0371M76.1719 -20.1201H86.1719M76.1719 -20.1201V-10.0371M86.1719 -20.1201H96.1719M86.1719 -20.1201V-10.0371M96.1719 -20.1201H106.172M96.1719 -20.1201V-10.0371M106.172 -20.1201H116.172M106.172 -20.1201V-10.0371M116.172 -20.1201V-10.0371M-43.8281 -10.0371H-53.8281M-43.8281 -10.0371H-33.8281M-43.8281 -10.0371V0.0468826M-53.8281 -10.0371V0.0468826M-33.8281 -10.0371H-23.8281M-33.8281 -10.0371V0.0468826M-23.8281 -10.0371H-13.8281M-23.8281 -10.0371V0.0468826M-13.8281 -10.0371H-3.82808M-13.8281 -10.0371V0.0468826M-3.82808 -10.0371H6.17192M-3.82808 -10.0371V0.0468826M6.17192 -10.0371H16.1719M6.17192 -10.0371V0.0468826M16.1719 -10.0371H26.1719M16.1719 -10.0371V0.0468826M26.1719 -10.0371H36.1719M26.1719 -10.0371V0.0468826M36.1719 -10.0371H46.1719M36.1719 -10.0371V0.0468826M46.1719 -10.0371H56.1719M46.1719 -10.0371V0.0468826M56.1719 -10.0371H66.1719M56.1719 -10.0371V0.0468826M66.1719 -10.0371H76.1719M66.1719 -10.0371V0.0468826M76.1719 -10.0371H86.1719M76.1719 -10.0371V0.0468826M86.1719 -10.0371H96.1719M86.1719 -10.0371V0.0468826M96.1719 -10.0371H106.172M96.1719 -10.0371V0.0468826M106.172 -10.0371H116.172M106.172 -10.0371V0.0468826M116.172 -10.0371V0.0468826M-43.8281 0.0468826H-53.8281M-43.8281 0.0468826H-33.8281M-43.8281 0.0468826V10.1299M-53.8281 0.0468826V10.1299M-33.8281 0.0468826H-23.8281M-33.8281 0.0468826V10.1299M-23.8281 0.0468826H-13.8281M-23.8281 0.0468826V10.1299M-13.8281 0.0468826H-3.82808M-13.8281 0.0468826V10.1299M-3.82808 0.0468826H6.17192M-3.82808 0.0468826V10.1299M6.17192 0.0468826H16.1719M6.17192 0.0468826V10.1299M16.1719 0.0468826H26.1719M16.1719 0.0468826V10.1299M26.1719 0.0468826H36.1719M26.1719 0.0468826V10.1299M36.1719 0.0468826H46.1719M36.1719 0.0468826V10.1299M46.1719 0.0468826H56.1719M46.1719 0.0468826V10.1299M56.1719 0.0468826H66.1719M56.1719 0.0468826V10.1299M66.1719 0.0468826H76.1719M66.1719 0.0468826V10.1299M76.1719 0.0468826H86.1719M76.1719 0.0468826V10.1299M86.1719 0.0468826H96.1719M86.1719 0.0468826V10.1299M96.1719 0.0468826H106.172M96.1719 0.0468826V10.1299M106.172 0.0468826H116.172M106.172 0.0468826V10.1299M116.172 0.0468826V10.1299M-43.8281 10.1299H-53.8281M-43.8281 10.1299H-33.8281M-43.8281 10.1299V20.2129M-53.8281 10.1299V20.2129M-33.8281 10.1299H-23.8281M-33.8281 10.1299V20.2129M-23.8281 10.1299H-13.8281M-23.8281 10.1299V20.2129M-13.8281 10.1299H-3.82808M-13.8281 10.1299V20.2129M-3.82808 10.1299H6.17192M-3.82808 10.1299V20.2129M6.17192 10.1299H16.1719M6.17192 10.1299V20.2129M16.1719 10.1299H26.1719M16.1719 10.1299V20.2129M26.1719 10.1299H36.1719M26.1719 10.1299V20.2129M36.1719 10.1299H46.1719M36.1719 10.1299V20.2129M46.1719 10.1299H56.1719M46.1719 10.1299V20.2129M56.1719 10.1299H66.1719M56.1719 10.1299V20.2129M66.1719 10.1299H76.1719M66.1719 10.1299V20.2129M76.1719 10.1299H86.1719M76.1719 10.1299V20.2129M86.1719 10.1299H96.1719M86.1719 10.1299V20.2129M96.1719 10.1299H106.172M96.1719 10.1299V20.2129M106.172 10.1299H116.172M106.172 10.1299V20.2129M116.172 10.1299V20.2129M-43.8281 20.2129H-53.8281M-43.8281 20.2129H-33.8281M-43.8281 20.2129V30.2969M-53.8281 20.2129V30.2969M-33.8281 20.2129H-23.8281M-33.8281 20.2129V30.2969M-23.8281 20.2129H-13.8281M-23.8281 20.2129V30.2969M-13.8281 20.2129H-3.82808M-13.8281 20.2129V30.2969M-3.82808 20.2129H6.17192M-3.82808 20.2129V30.2969M6.17192 20.2129H16.1719M6.17192 20.2129V30.2969M16.1719 20.2129H26.1719M16.1719 20.2129V30.2969M26.1719 20.2129H36.1719M26.1719 20.2129V30.2969M36.1719 20.2129H46.1719M36.1719 20.2129V30.2969M46.1719 20.2129H56.1719M46.1719 20.2129V30.2969M56.1719 20.2129H66.1719M56.1719 20.2129V30.2969M66.1719 20.2129H76.1719M66.1719 20.2129V30.2969M76.1719 20.2129H86.1719M76.1719 20.2129V30.2969M86.1719 20.2129H96.1719M86.1719 20.2129V30.2969M96.1719 20.2129H106.172M96.1719 20.2129V30.2969M106.172 20.2129H116.172M106.172 20.2129V30.2969M116.172 20.2129V30.2969M-43.8281 30.2969H-53.8281M-43.8281 30.2969H-33.8281M-43.8281 30.2969V40.3799M-53.8281 30.2969V40.3799M-33.8281 30.2969H-23.8281M-33.8281 30.2969V40.3799M-23.8281 30.2969H-13.8281M-23.8281 30.2969V40.3799M-13.8281 30.2969H-3.82808M-13.8281 30.2969V40.3799M-3.82808 30.2969H6.17192M-3.82808 30.2969V40.3799M6.17192 30.2969H16.1719M6.17192 30.2969V40.3799M16.1719 30.2969H26.1719M16.1719 30.2969V40.3799M26.1719 30.2969H36.1719M26.1719 30.2969V40.3799M36.1719 30.2969H46.1719M36.1719 30.2969V40.3799M46.1719 30.2969H56.1719M46.1719 30.2969V40.3799M56.1719 30.2969H66.1719M56.1719 30.2969V40.3799M66.1719 30.2969H76.1719M66.1719 30.2969V40.3799M76.1719 30.2969H86.1719M76.1719 30.2969V40.3799M86.1719 30.2969H96.1719M86.1719 30.2969V40.3799M96.1719 30.2969H106.172M96.1719 30.2969V40.3799M106.172 30.2969H116.172M106.172 30.2969V40.3799M116.172 30.2969V40.3799M-43.8281 40.3799H-53.8281M-43.8281 40.3799H-33.8281M-43.8281 40.3799V50.4629M-53.8281 40.3799V50.4629M-33.8281 40.3799H-23.8281M-33.8281 40.3799V50.4629M-23.8281 40.3799H-13.8281M-23.8281 40.3799V50.4629M-13.8281 40.3799H-3.82808M-13.8281 40.3799V50.4629M-3.82808 40.3799H6.17192M-3.82808 40.3799V50.4629M6.17192 40.3799H16.1719M6.17192 40.3799V50.4629M16.1719 40.3799H26.1719M16.1719 40.3799V50.4629M26.1719 40.3799H36.1719M26.1719 40.3799V50.4629M36.1719 40.3799H46.1719M36.1719 40.3799V50.4629M46.1719 40.3799H56.1719M46.1719 40.3799V50.4629M56.1719 40.3799H66.1719M56.1719 40.3799V50.4629M66.1719 40.3799H76.1719M66.1719 40.3799V50.4629M76.1719 40.3799H86.1719M76.1719 40.3799V50.4629M86.1719 40.3799H96.1719M86.1719 40.3799V50.4629M96.1719 40.3799H106.172M96.1719 40.3799V50.4629M106.172 40.3799H116.172M106.172 40.3799V50.4629M116.172 40.3799V50.4629M-43.8281 50.4629H-53.8281M-43.8281 50.4629H-33.8281M-43.8281 50.4629V60.5469M-53.8281 50.4629V60.5469M-33.8281 50.4629H-23.8281M-33.8281 50.4629V60.5469M-23.8281 50.4629H-13.8281M-23.8281 50.4629V60.5469M-13.8281 50.4629H-3.82808M-13.8281 50.4629V60.5469M-3.82808 50.4629H6.17192M-3.82808 50.4629V60.5469M6.17192 50.4629H16.1719M6.17192 50.4629V60.5469M16.1719 50.4629H26.1719M16.1719 50.4629V60.5469M26.1719 50.4629H36.1719M26.1719 50.4629V60.5469M36.1719 50.4629H46.1719M36.1719 50.4629V60.5469M46.1719 50.4629H56.1719M46.1719 50.4629V60.5469M56.1719 50.4629H66.1719M56.1719 50.4629V60.5469M66.1719 50.4629H76.1719M66.1719 50.4629V60.5469M76.1719 50.4629H86.1719M76.1719 50.4629V60.5469M86.1719 50.4629H96.1719M86.1719 50.4629V60.5469M96.1719 50.4629H106.172M96.1719 50.4629V60.5469M106.172 50.4629H116.172M106.172 50.4629V60.5469M116.172 50.4629V60.5469M-43.8281 60.5469H-53.8281M-43.8281 60.5469H-33.8281M-43.8281 60.5469V70.6299M-53.8281 60.5469V70.6299H-43.8281M-33.8281 60.5469H-23.8281M-33.8281 60.5469V70.6299M-23.8281 60.5469H-13.8281M-23.8281 60.5469V70.6299M-13.8281 60.5469H-3.82808M-13.8281 60.5469V70.6299M-3.82808 60.5469H6.17192M-3.82808 60.5469V70.6299M6.17192 60.5469H16.1719M6.17192 60.5469V70.6299M16.1719 60.5469H26.1719M16.1719 60.5469V70.6299M26.1719 60.5469H36.1719M26.1719 60.5469V70.6299M36.1719 60.5469H46.1719M36.1719 60.5469V70.6299M46.1719 60.5469H56.1719M46.1719 60.5469V70.6299M56.1719 60.5469H66.1719M56.1719 60.5469V70.6299M66.1719 60.5469H76.1719M66.1719 60.5469V70.6299M76.1719 60.5469H86.1719M76.1719 60.5469V70.6299M86.1719 60.5469H96.1719M86.1719 60.5469V70.6299M96.1719 60.5469H106.172M96.1719 60.5469V70.6299M106.172 60.5469H116.172M106.172 60.5469V70.6299M116.172 60.5469V70.6299H106.172M-43.8281 70.6299H-33.8281M-33.8281 70.6299H-23.8281M-23.8281 70.6299H-13.8281M-13.8281 70.6299H-3.82808M-3.82808 70.6299H6.17192M6.17192 70.6299H16.1719M16.1719 70.6299H26.1719M26.1719 70.6299H36.1719M36.1719 70.6299H46.1719M46.1719 70.6299H56.1719M56.1719 70.6299H66.1719M66.1719 70.6299H76.1719M76.1719 70.6299H86.1719M86.1719 70.6299H96.1719M96.1719 70.6299H106.172" stroke="url(#paint1_radial_95_58)" stroke-opacity="0.2"/>
</g>
</g>
</g>
</g>
<g clip-path="url(#clip4_95_58)">
<g clip-path="url(#clip5_95_58)">
<path d="M44.5 16L42.0621 42.4059L31.4998 45.2499L20.9374 42.4059L18.5 16H44.5ZM39.5875 21.3692H31.4903H23.2497L23.6438 24.558H31.4903H31.9311L31.4903 24.7415L23.9305 27.89L24.1813 31.007L31.4903 31.0307L35.4078 31.0431L35.157 35.1991L31.4903 36.2314V36.2282L31.4602 36.2365L27.9191 35.3426L27.7042 32.7628H27.6925H24.4079H24.3963L24.8262 37.7431L31.4904 39.7139V39.7103L31.5024 39.7139L38.1308 37.779L38.9906 27.89H31.4904H31.4719L31.4904 27.882L39.2654 24.558L39.5875 21.3692Z" fill="white"/>
</g>
</g>
<rect x="1.5" y="1" width="60" height="60" rx="30" stroke="white" stroke-width="2"/>
</g>
<defs>
<linearGradient id="paint0_linear_95_58" x1="31.166" y1="0" x2="31.166" y2="62" gradientUnits="userSpaceOnUse">
<stop stop-color="#460C7A"/>
<stop offset="1" stop-color="#63329D"/>
</linearGradient>
<radialGradient id="paint1_radial_95_58" cx="0" cy="0" r="1" gradientUnits="userSpaceOnUse" gradientTransform="translate(31.1699 -50.3701) rotate(90) scale(128.562 100.243)">
<stop stop-color="white"/>
<stop offset="0.804" stop-color="white" stop-opacity="0"/>
</radialGradient>
<clipPath id="clip0_95_58">
<rect x="0.5" width="62" height="62" rx="31" fill="white"/>
</clipPath>
<clipPath id="clip1_95_58">
<rect x="0.5" width="62" height="62" rx="31" fill="white"/>
</clipPath>
<clipPath id="clip2_95_58">
<rect width="62" height="62" fill="white" transform="translate(0.5)"/>
</clipPath>
<clipPath id="clip3_95_58">
<rect width="63" height="62" fill="white"/>
</clipPath>
<clipPath id="clip4_95_58">
<rect width="34" height="34" fill="white" transform="translate(14.5 14)"/>
</clipPath>
<clipPath id="clip5_95_58">
<rect width="34" height="34" fill="white" transform="translate(14.5 14)"/>
</clipPath>
</defs>
</svg>
