<svg width="62" height="62" viewBox="0 0 62 62" fill="none" xmlns="http://www.w3.org/2000/svg">
<g clip-path="url(#clip0_107_138)">
<rect width="62" height="62" rx="31" fill="white" fill-opacity="0.01"/>
<g clip-path="url(#clip1_107_138)">
<g clip-path="url(#clip2_107_138)">
<g clip-path="url(#clip3_107_138)">
<mask id="mask0_107_138" style="mask-type:luminance" maskUnits="userSpaceOnUse" x="-1" y="0" width="63" height="62">
<path d="M61.667 31C61.667 13.8792 47.7878 0 30.667 0C13.5462 0 -0.333008 13.8792 -0.333008 31C-0.333008 48.1208 13.5462 62 30.667 62C47.7878 62 61.667 48.1208 61.667 31Z" fill="white"/>
</mask>
<g mask="url(#mask0_107_138)">
<path d="M61.667 31C61.667 13.8792 47.7878 0 30.667 0C13.5462 0 -0.333008 13.8792 -0.333008 31C-0.333008 48.1208 13.5462 62 30.667 62C47.7878 62 61.667 48.1208 61.667 31Z" fill="url(#paint0_linear_107_138)"/>
<path d="M-44.3301 -50.3701H-54.3301V-40.2871M-44.3301 -50.3701V-40.2871M-44.3301 -50.3701H-34.3301M-54.3301 -40.2871H-44.3301M-54.3301 -40.2871V-30.2031M-44.3301 -40.2871H-34.3301M-44.3301 -40.2871V-30.2031M-34.3301 -50.3701V-40.2871M-34.3301 -50.3701H-24.3301M-34.3301 -40.2871H-24.3301M-34.3301 -40.2871V-30.2031M-24.3301 -50.3701V-40.2871M-24.3301 -50.3701H-14.3301M-24.3301 -40.2871H-14.3301M-24.3301 -40.2871V-30.2031M-14.3301 -50.3701V-40.2871M-14.3301 -50.3701H-4.33008M-14.3301 -40.2871H-4.33008M-14.3301 -40.2871V-30.2031M-4.33008 -50.3701V-40.2871M-4.33008 -50.3701H5.66992M-4.33008 -40.2871H5.66992M-4.33008 -40.2871V-30.2031M5.66992 -50.3701V-40.2871M5.66992 -50.3701H15.6709M5.66992 -40.2871H15.6709M5.66992 -40.2871L5.67092 -30.2031M15.6709 -50.3701V-40.2871M15.6709 -50.3701H25.6709M15.6709 -40.2871H25.6709M15.6709 -40.2871V-30.2031M5.67092 -30.2031H-4.32808M5.67092 -30.2031H15.6709M5.67092 -30.2031L5.67192 -20.1201M25.6709 -50.3701V-40.2871M25.6709 -50.3701H35.6709M25.6709 -40.2871H35.6709M25.6709 -40.2871V-30.2031M15.6709 -30.2031H25.6709M15.6709 -30.2031L15.6719 -20.1201M35.6709 -50.3701V-40.2871M35.6709 -50.3701H45.6709M35.6709 -40.2871H45.6709M35.6709 -40.2871V-30.2031M25.6709 -30.2031H35.6709M25.6709 -30.2031L25.6719 -20.1201M45.6709 -50.3701V-40.2871M45.6709 -50.3701H55.6709M45.6709 -40.2871H55.6709M45.6709 -40.2871V-30.2031M35.6709 -30.2031H45.6709M35.6709 -30.2031L35.6719 -20.1201M55.6709 -50.3701V-40.2871M55.6709 -50.3701H65.6709M55.6709 -40.2871H65.6709M55.6709 -40.2871V-30.2031M45.6709 -30.2031H55.6709M45.6709 -30.2031L45.6719 -20.1201M65.6709 -50.3701V-40.2871M65.6709 -50.3701H75.6709M65.6709 -40.2871H75.6709M65.6709 -40.2871V-30.2031M55.6709 -30.2031H65.6709M55.6709 -30.2031L55.6719 -20.1201M75.6709 -50.3701V-40.2871M75.6709 -50.3701H85.6709M75.6709 -40.2871H85.6709M75.6709 -40.2871V-30.2031M65.6709 -30.2031H75.6709M65.6709 -30.2031L65.6719 -20.1201M85.6709 -50.3701V-40.2871M85.6709 -50.3701H95.6709M85.6709 -40.2871H95.6709M85.6709 -40.2871V-30.2031M75.6709 -30.2031H85.6709M75.6709 -30.2031L75.6719 -20.1201M95.6709 -50.3701V-40.2871M95.6709 -50.3701H105.672M95.6709 -40.2871H105.672M95.6709 -40.2871L95.6719 -30.2031M85.6709 -30.2031H95.6719M85.6709 -30.2031L85.6719 -20.1201M105.672 -50.3701V-40.2871M105.672 -50.3701H115.672V-40.2871M105.672 -40.2871H115.672M105.672 -40.2871V-30.2031M95.6719 -30.2031H105.672M95.6719 -30.2031V-20.1201M115.672 -40.2871V-30.2031M105.672 -30.2031H115.672M105.672 -30.2031V-20.1201M115.672 -30.2031V-20.1201M-44.3281 -30.2031H-54.3281V-20.1201M-44.3281 -30.2031H-34.3281M-44.3281 -30.2031V-20.1201M-34.3281 -30.2031H-24.3281M-34.3281 -30.2031V-20.1201M-44.3281 -20.1201H-54.3281M-44.3281 -20.1201H-34.3281M-44.3281 -20.1201V-10.0371M-54.3281 -20.1201V-10.0371M-24.3281 -30.2031H-14.3281M-24.3281 -30.2031V-20.1201M-34.3281 -20.1201H-24.3281M-34.3281 -20.1201V-10.0371M-14.3281 -30.2031H-4.32808M-14.3281 -30.2031V-20.1201M-24.3281 -20.1201H-14.3281M-24.3281 -20.1201V-10.0371M-4.32808 -30.2031V-20.1201M-14.3281 -20.1201H-4.32808M-14.3281 -20.1201V-10.0371M-4.32808 -20.1201H5.67192M-4.32808 -20.1201V-10.0371M5.67192 -20.1201H15.6719M5.67192 -20.1201V-10.0371M15.6719 -20.1201H25.6719M15.6719 -20.1201V-10.0371M25.6719 -20.1201H35.6719M25.6719 -20.1201V-10.0371M35.6719 -20.1201H45.6719M35.6719 -20.1201V-10.0371M45.6719 -20.1201H55.6719M45.6719 -20.1201V-10.0371M55.6719 -20.1201H65.6719M55.6719 -20.1201V-10.0371M65.6719 -20.1201H75.6719M65.6719 -20.1201V-10.0371M75.6719 -20.1201H85.6719M75.6719 -20.1201V-10.0371M85.6719 -20.1201H95.6719M85.6719 -20.1201V-10.0371M95.6719 -20.1201H105.672M95.6719 -20.1201V-10.0371M105.672 -20.1201H115.672M105.672 -20.1201V-10.0371M115.672 -20.1201V-10.0371M-44.3281 -10.0371H-54.3281M-44.3281 -10.0371H-34.3281M-44.3281 -10.0371V0.0468826M-54.3281 -10.0371V0.0468826M-34.3281 -10.0371H-24.3281M-34.3281 -10.0371V0.0468826M-24.3281 -10.0371H-14.3281M-24.3281 -10.0371V0.0468826M-14.3281 -10.0371H-4.32808M-14.3281 -10.0371V0.0468826M-4.32808 -10.0371H5.67192M-4.32808 -10.0371V0.0468826M5.67192 -10.0371H15.6719M5.67192 -10.0371V0.0468826M15.6719 -10.0371H25.6719M15.6719 -10.0371V0.0468826M25.6719 -10.0371H35.6719M25.6719 -10.0371V0.0468826M35.6719 -10.0371H45.6719M35.6719 -10.0371V0.0468826M45.6719 -10.0371H55.6719M45.6719 -10.0371V0.0468826M55.6719 -10.0371H65.6719M55.6719 -10.0371V0.0468826M65.6719 -10.0371H75.6719M65.6719 -10.0371V0.0468826M75.6719 -10.0371H85.6719M75.6719 -10.0371V0.0468826M85.6719 -10.0371H95.6719M85.6719 -10.0371V0.0468826M95.6719 -10.0371H105.672M95.6719 -10.0371V0.0468826M105.672 -10.0371H115.672M105.672 -10.0371V0.0468826M115.672 -10.0371V0.0468826M-44.3281 0.0468826H-54.3281M-44.3281 0.0468826H-34.3281M-44.3281 0.0468826V10.1299M-54.3281 0.0468826V10.1299M-34.3281 0.0468826H-24.3281M-34.3281 0.0468826V10.1299M-24.3281 0.0468826H-14.3281M-24.3281 0.0468826V10.1299M-14.3281 0.0468826H-4.32808M-14.3281 0.0468826V10.1299M-4.32808 0.0468826H5.67192M-4.32808 0.0468826V10.1299M5.67192 0.0468826H15.6719M5.67192 0.0468826V10.1299M15.6719 0.0468826H25.6719M15.6719 0.0468826V10.1299M25.6719 0.0468826H35.6719M25.6719 0.0468826V10.1299M35.6719 0.0468826H45.6719M35.6719 0.0468826V10.1299M45.6719 0.0468826H55.6719M45.6719 0.0468826V10.1299M55.6719 0.0468826H65.6719M55.6719 0.0468826V10.1299M65.6719 0.0468826H75.6719M65.6719 0.0468826V10.1299M75.6719 0.0468826H85.6719M75.6719 0.0468826V10.1299M85.6719 0.0468826H95.6719M85.6719 0.0468826V10.1299M95.6719 0.0468826H105.672M95.6719 0.0468826V10.1299M105.672 0.0468826H115.672M105.672 0.0468826V10.1299M115.672 0.0468826V10.1299M-44.3281 10.1299H-54.3281M-44.3281 10.1299H-34.3281M-44.3281 10.1299V20.2129M-54.3281 10.1299V20.2129M-34.3281 10.1299H-24.3281M-34.3281 10.1299V20.2129M-24.3281 10.1299H-14.3281M-24.3281 10.1299V20.2129M-14.3281 10.1299H-4.32808M-14.3281 10.1299V20.2129M-4.32808 10.1299H5.67192M-4.32808 10.1299V20.2129M5.67192 10.1299H15.6719M5.67192 10.1299V20.2129M15.6719 10.1299H25.6719M15.6719 10.1299V20.2129M25.6719 10.1299H35.6719M25.6719 10.1299V20.2129M35.6719 10.1299H45.6719M35.6719 10.1299V20.2129M45.6719 10.1299H55.6719M45.6719 10.1299V20.2129M55.6719 10.1299H65.6719M55.6719 10.1299V20.2129M65.6719 10.1299H75.6719M65.6719 10.1299V20.2129M75.6719 10.1299H85.6719M75.6719 10.1299V20.2129M85.6719 10.1299H95.6719M85.6719 10.1299V20.2129M95.6719 10.1299H105.672M95.6719 10.1299V20.2129M105.672 10.1299H115.672M105.672 10.1299V20.2129M115.672 10.1299V20.2129M-44.3281 20.2129H-54.3281M-44.3281 20.2129H-34.3281M-44.3281 20.2129V30.2969M-54.3281 20.2129V30.2969M-34.3281 20.2129H-24.3281M-34.3281 20.2129V30.2969M-24.3281 20.2129H-14.3281M-24.3281 20.2129V30.2969M-14.3281 20.2129H-4.32808M-14.3281 20.2129V30.2969M-4.32808 20.2129H5.67192M-4.32808 20.2129V30.2969M5.67192 20.2129H15.6719M5.67192 20.2129V30.2969M15.6719 20.2129H25.6719M15.6719 20.2129V30.2969M25.6719 20.2129H35.6719M25.6719 20.2129V30.2969M35.6719 20.2129H45.6719M35.6719 20.2129V30.2969M45.6719 20.2129H55.6719M45.6719 20.2129V30.2969M55.6719 20.2129H65.6719M55.6719 20.2129V30.2969M65.6719 20.2129H75.6719M65.6719 20.2129V30.2969M75.6719 20.2129H85.6719M75.6719 20.2129V30.2969M85.6719 20.2129H95.6719M85.6719 20.2129V30.2969M95.6719 20.2129H105.672M95.6719 20.2129V30.2969M105.672 20.2129H115.672M105.672 20.2129V30.2969M115.672 20.2129V30.2969M-44.3281 30.2969H-54.3281M-44.3281 30.2969H-34.3281M-44.3281 30.2969V40.3799M-54.3281 30.2969V40.3799M-34.3281 30.2969H-24.3281M-34.3281 30.2969V40.3799M-24.3281 30.2969H-14.3281M-24.3281 30.2969V40.3799M-14.3281 30.2969H-4.32808M-14.3281 30.2969V40.3799M-4.32808 30.2969H5.67192M-4.32808 30.2969V40.3799M5.67192 30.2969H15.6719M5.67192 30.2969V40.3799M15.6719 30.2969H25.6719M15.6719 30.2969V40.3799M25.6719 30.2969H35.6719M25.6719 30.2969V40.3799M35.6719 30.2969H45.6719M35.6719 30.2969V40.3799M45.6719 30.2969H55.6719M45.6719 30.2969V40.3799M55.6719 30.2969H65.6719M55.6719 30.2969V40.3799M65.6719 30.2969H75.6719M65.6719 30.2969V40.3799M75.6719 30.2969H85.6719M75.6719 30.2969V40.3799M85.6719 30.2969H95.6719M85.6719 30.2969V40.3799M95.6719 30.2969H105.672M95.6719 30.2969V40.3799M105.672 30.2969H115.672M105.672 30.2969V40.3799M115.672 30.2969V40.3799M-44.3281 40.3799H-54.3281M-44.3281 40.3799H-34.3281M-44.3281 40.3799V50.4629M-54.3281 40.3799V50.4629M-34.3281 40.3799H-24.3281M-34.3281 40.3799V50.4629M-24.3281 40.3799H-14.3281M-24.3281 40.3799V50.4629M-14.3281 40.3799H-4.32808M-14.3281 40.3799V50.4629M-4.32808 40.3799H5.67192M-4.32808 40.3799V50.4629M5.67192 40.3799H15.6719M5.67192 40.3799V50.4629M15.6719 40.3799H25.6719M15.6719 40.3799V50.4629M25.6719 40.3799H35.6719M25.6719 40.3799V50.4629M35.6719 40.3799H45.6719M35.6719 40.3799V50.4629M45.6719 40.3799H55.6719M45.6719 40.3799V50.4629M55.6719 40.3799H65.6719M55.6719 40.3799V50.4629M65.6719 40.3799H75.6719M65.6719 40.3799V50.4629M75.6719 40.3799H85.6719M75.6719 40.3799V50.4629M85.6719 40.3799H95.6719M85.6719 40.3799V50.4629M95.6719 40.3799H105.672M95.6719 40.3799V50.4629M105.672 40.3799H115.672M105.672 40.3799V50.4629M115.672 40.3799V50.4629M-44.3281 50.4629H-54.3281M-44.3281 50.4629H-34.3281M-44.3281 50.4629V60.5469M-54.3281 50.4629V60.5469M-34.3281 50.4629H-24.3281M-34.3281 50.4629V60.5469M-24.3281 50.4629H-14.3281M-24.3281 50.4629V60.5469M-14.3281 50.4629H-4.32808M-14.3281 50.4629V60.5469M-4.32808 50.4629H5.67192M-4.32808 50.4629V60.5469M5.67192 50.4629H15.6719M5.67192 50.4629V60.5469M15.6719 50.4629H25.6719M15.6719 50.4629V60.5469M25.6719 50.4629H35.6719M25.6719 50.4629V60.5469M35.6719 50.4629H45.6719M35.6719 50.4629V60.5469M45.6719 50.4629H55.6719M45.6719 50.4629V60.5469M55.6719 50.4629H65.6719M55.6719 50.4629V60.5469M65.6719 50.4629H75.6719M65.6719 50.4629V60.5469M75.6719 50.4629H85.6719M75.6719 50.4629V60.5469M85.6719 50.4629H95.6719M85.6719 50.4629V60.5469M95.6719 50.4629H105.672M95.6719 50.4629V60.5469M105.672 50.4629H115.672M105.672 50.4629V60.5469M115.672 50.4629V60.5469M-44.3281 60.5469H-54.3281M-44.3281 60.5469H-34.3281M-44.3281 60.5469V70.6299M-54.3281 60.5469V70.6299H-44.3281M-34.3281 60.5469H-24.3281M-34.3281 60.5469V70.6299M-24.3281 60.5469H-14.3281M-24.3281 60.5469V70.6299M-14.3281 60.5469H-4.32808M-14.3281 60.5469V70.6299M-4.32808 60.5469H5.67192M-4.32808 60.5469V70.6299M5.67192 60.5469H15.6719M5.67192 60.5469V70.6299M15.6719 60.5469H25.6719M15.6719 60.5469V70.6299M25.6719 60.5469H35.6719M25.6719 60.5469V70.6299M35.6719 60.5469H45.6719M35.6719 60.5469V70.6299M45.6719 60.5469H55.6719M45.6719 60.5469V70.6299M55.6719 60.5469H65.6719M55.6719 60.5469V70.6299M65.6719 60.5469H75.6719M65.6719 60.5469V70.6299M75.6719 60.5469H85.6719M75.6719 60.5469V70.6299M85.6719 60.5469H95.6719M85.6719 60.5469V70.6299M95.6719 60.5469H105.672M95.6719 60.5469V70.6299M105.672 60.5469H115.672M105.672 60.5469V70.6299M115.672 60.5469V70.6299H105.672M-44.3281 70.6299H-34.3281M-34.3281 70.6299H-24.3281M-24.3281 70.6299H-14.3281M-14.3281 70.6299H-4.32808M-4.32808 70.6299H5.67192M5.67192 70.6299H15.6719M15.6719 70.6299H25.6719M25.6719 70.6299H35.6719M35.6719 70.6299H45.6719M45.6719 70.6299H55.6719M55.6719 70.6299H65.6719M65.6719 70.6299H75.6719M75.6719 70.6299H85.6719M85.6719 70.6299H95.6719M95.6719 70.6299H105.672" stroke="url(#paint1_radial_107_138)" stroke-opacity="0.2"/>
<g clip-path="url(#clip4_107_138)">
<path d="M25.3722 40.2411C25.3722 40.3782 25.2145 40.4879 25.0157 40.4879C24.7895 40.5085 24.6319 40.3988 24.6319 40.2411C24.6319 40.104 24.7895 39.9944 24.9883 39.9944C25.194 39.9738 25.3722 40.0835 25.3722 40.2411ZM23.2403 39.9327C23.1923 40.0698 23.3294 40.2274 23.5351 40.2686C23.7133 40.3371 23.919 40.2686 23.9601 40.1315C24.0012 39.9944 23.871 39.8367 23.6653 39.775C23.4871 39.727 23.2883 39.7956 23.2403 39.9327ZM26.2702 39.8161C26.0714 39.8641 25.9343 39.9944 25.9548 40.152C25.9754 40.2891 26.1536 40.3782 26.3593 40.3303C26.5581 40.2823 26.6952 40.152 26.6746 40.0149C26.654 39.8847 26.469 39.7956 26.2702 39.8161ZM30.7806 13.5484C21.273 13.5484 14 20.7665 14 30.2742C14 37.8762 18.7847 44.3815 25.619 46.671C26.4964 46.8286 26.8048 46.2871 26.8048 45.8415C26.8048 45.4165 26.7843 43.0722 26.7843 41.6327C26.7843 41.6327 21.9859 42.6609 20.9782 39.5899C20.9782 39.5899 20.1968 37.5952 19.0726 37.0811C19.0726 37.0811 17.5028 36.0049 19.1823 36.0254C19.1823 36.0254 20.8891 36.1625 21.8282 37.794C23.3294 40.4399 25.8452 39.679 26.8254 39.2266C26.9831 38.1299 27.4286 37.369 27.9222 36.9165C24.0903 36.4915 20.2242 35.9363 20.2242 29.3419C20.2242 27.4569 20.7452 26.5109 21.8419 25.3044C21.6637 24.8589 21.081 23.0218 22.0202 20.65C23.4528 20.2044 26.75 22.5008 26.75 22.5008C28.121 22.1169 29.5948 21.9182 31.0548 21.9182C32.5149 21.9182 33.9887 22.1169 35.3597 22.5008C35.3597 22.5008 38.6569 20.1976 40.0895 20.65C41.0286 23.0286 40.446 24.8589 40.2677 25.3044C41.3645 26.5178 42.0363 27.4637 42.0363 29.3419C42.0363 35.9569 37.9988 36.4847 34.1669 36.9165C34.7976 37.4581 35.3323 38.4863 35.3323 40.0972C35.3323 42.4073 35.3117 45.2657 35.3117 45.8278C35.3117 46.2734 35.627 46.8149 36.4976 46.6573C43.3524 44.3815 48 37.8762 48 30.2742C48 20.7665 40.2883 13.5484 30.7806 13.5484ZM20.6629 37.1907C20.5738 37.2593 20.5944 37.417 20.7109 37.5472C20.8206 37.6569 20.9782 37.7049 21.0673 37.6157C21.1565 37.5472 21.1359 37.3895 21.0194 37.2593C20.9097 37.1496 20.752 37.1016 20.6629 37.1907ZM19.9226 36.6355C19.8746 36.7246 19.9431 36.8343 20.0802 36.9028C20.1899 36.9714 20.327 36.9508 20.375 36.8549C20.423 36.7657 20.3544 36.6561 20.2173 36.5875C20.0802 36.5464 19.9706 36.5669 19.9226 36.6355ZM22.1435 39.0758C22.0339 39.1649 22.075 39.3706 22.2327 39.5008C22.3903 39.6585 22.5891 39.679 22.6782 39.5694C22.7673 39.4803 22.7262 39.2746 22.5891 39.1444C22.4383 38.9867 22.2327 38.9661 22.1435 39.0758ZM21.3621 38.0682C21.2524 38.1367 21.2524 38.3149 21.3621 38.4726C21.4718 38.6303 21.6569 38.6988 21.746 38.6303C21.8556 38.5411 21.8556 38.3629 21.746 38.2053C21.65 38.0476 21.4718 37.979 21.3621 38.0682Z" fill="white"/>
</g>
</g>
</g>
</g>
</g>
<rect x="1" y="1" width="60" height="60" rx="30" stroke="white" stroke-width="2"/>
</g>
<defs>
<linearGradient id="paint0_linear_107_138" x1="30.666" y1="0" x2="30.666" y2="62" gradientUnits="userSpaceOnUse">
<stop stop-color="#460C7A"/>
<stop offset="1" stop-color="#63329D"/>
</linearGradient>
<radialGradient id="paint1_radial_107_138" cx="0" cy="0" r="1" gradientUnits="userSpaceOnUse" gradientTransform="translate(30.6699 -50.3701) rotate(90) scale(128.562 100.243)">
<stop stop-color="white"/>
<stop offset="0.804" stop-color="white" stop-opacity="0"/>
</radialGradient>
<clipPath id="clip0_107_138">
<rect width="62" height="62" rx="31" fill="white"/>
</clipPath>
<clipPath id="clip1_107_138">
<rect width="62" height="62" rx="31" fill="white"/>
</clipPath>
<clipPath id="clip2_107_138">
<rect width="62" height="62" fill="white"/>
</clipPath>
<clipPath id="clip3_107_138">
<rect width="63" height="62" fill="white" transform="translate(-0.5)"/>
</clipPath>
<clipPath id="clip4_107_138">
<rect width="34" height="35.0968" fill="white" transform="translate(14 13)"/>
</clipPath>
</defs>
</svg>
