<svg
  width="135"
  height="20"
  viewBox="0 0 135 20"
  fill="none"
  xmlns="http://www.w3.org/2000/svg"
>
  <path
    d="M0 12.2085C0 10.7463 0.300107 9.4515 0.900322 8.32401C1.51819 7.19653 2.3479 6.32449 3.38945 5.70789C4.44865 5.07368 5.61377 4.75658 6.88481 4.75658C8.03228 4.75658 9.0297 4.9856 9.87706 5.44364C10.7421 5.88406 11.4306 6.439 11.9425 7.10844V4.99441H14.9877V19.5548H11.9425V17.3879C11.4306 18.075 10.7332 18.6475 9.85058 19.1056C8.96791 19.5636 7.96167 19.7926 6.83185 19.7926C5.57847 19.7926 4.431 19.4755 3.38945 18.8413C2.3479 18.1895 1.51819 17.291 0.900322 16.1459C0.300107 14.9832 0 13.6708 0 12.2085ZM11.9425 12.2614C11.9425 11.2572 11.7307 10.3852 11.307 9.64528C10.901 8.90537 10.3625 8.34163 9.6917 7.95406C9.02087 7.56648 8.29708 7.3727 7.52034 7.3727C6.74359 7.3727 6.0198 7.56648 5.34897 7.95406C4.67814 8.32401 4.13089 8.87895 3.70721 9.61886C3.30118 10.3412 3.09817 11.2044 3.09817 12.2085C3.09817 13.2127 3.30118 14.0936 3.70721 14.8511C4.13089 15.6086 4.67814 16.19 5.34897 16.5952C6.03745 16.9827 6.76124 17.1765 7.52034 17.1765C8.29708 17.1765 9.02087 16.9827 9.6917 16.5952C10.3625 16.2076 10.901 15.6439 11.307 14.9039C11.7307 14.1464 11.9425 13.2656 11.9425 12.2614Z"
    fill="white"
  />
  <path
    d="M26.3141 4.75658C27.4616 4.75658 28.4855 4.99441 29.3858 5.47006C30.3038 5.94572 31.0188 6.6504 31.5307 7.5841C32.0427 8.5178 32.2986 9.64528 32.2986 10.9666V19.5548H29.3064V11.4158C29.3064 10.1121 28.9798 9.11677 28.3266 8.42971C27.6735 7.72503 26.782 7.3727 25.6521 7.3727C24.5223 7.3727 23.622 7.72503 22.9512 8.42971C22.298 9.11677 21.9714 10.1121 21.9714 11.4158V19.5548H18.9527V4.99441H21.9714V6.65921C22.4657 6.06023 23.0924 5.59338 23.8515 5.25866C24.6282 4.92394 25.4491 4.75658 26.3141 4.75658Z"
    fill="white"
  />
  <path
    d="M35.143 12.2085C35.143 10.7463 35.4431 9.4515 36.0433 8.32401C36.6612 7.19653 37.4909 6.32449 38.5324 5.70789C39.5916 5.07368 40.7656 4.75658 42.0543 4.75658C43.0075 4.75658 43.9432 4.96798 44.8611 5.39079C45.7968 5.79598 46.5382 6.3421 47.0855 7.02916V0H50.1307V19.5548H47.0855V17.3615C46.5912 18.0662 45.9027 18.6475 45.02 19.1056C44.155 19.5636 43.1576 19.7926 42.0278 19.7926C40.7567 19.7926 39.5916 19.4755 38.5324 18.8413C37.4909 18.1895 36.6612 17.291 36.0433 16.1459C35.4431 14.9832 35.143 13.6708 35.143 12.2085ZM47.0855 12.2614C47.0855 11.2572 46.8736 10.3852 46.4499 9.64528C46.0439 8.90537 45.5055 8.34163 44.8347 7.95406C44.1638 7.56648 43.44 7.3727 42.6633 7.3727C41.8866 7.3727 41.1628 7.56648 40.4919 7.95406C39.8211 8.32401 39.2739 8.87895 38.8502 9.61886C38.4441 10.3412 38.2411 11.2044 38.2411 12.2085C38.2411 13.2127 38.4441 14.0936 38.8502 14.8511C39.2739 15.6086 39.8211 16.19 40.4919 16.5952C41.1804 16.9827 41.9042 17.1765 42.6633 17.1765C43.44 17.1765 44.1638 16.9827 44.8347 16.5952C45.5055 16.2076 46.0439 15.6439 46.4499 14.9039C46.8736 14.1464 47.0855 13.2656 47.0855 12.2614Z"
    fill="white"
  />
  <path
    d="M57.1144 7.10844C57.5557 6.36853 58.1383 5.79598 58.8621 5.39079C59.6035 4.96798 60.4773 4.75658 61.4836 4.75658V7.87478H60.7157C59.5329 7.87478 58.6326 8.17427 58.0147 8.77324C57.4145 9.37222 57.1144 10.4116 57.1144 11.8914V19.5548H54.0957V4.99441H57.1144V7.10844Z"
    fill="white"
  />
  <path
    d="M77.6308 11.9179C77.6308 12.464 77.5955 12.9573 77.5249 13.3977H66.3768C66.4651 14.5604 66.8976 15.4941 67.6743 16.1988C68.4511 16.9035 69.4044 17.2558 70.5342 17.2558C72.1583 17.2558 73.3058 16.5776 73.9766 15.221H77.2336C76.7923 16.5599 75.9891 17.661 74.8239 18.5242C73.6765 19.3698 72.2466 19.7926 70.5342 19.7926C69.1396 19.7926 67.8862 19.4844 66.774 18.8678C65.6795 18.2335 64.8145 17.3527 64.179 16.2252C63.5611 15.0801 63.2522 13.7588 63.2522 12.2614C63.2522 10.764 63.5523 9.4515 64.1525 8.32401C64.7704 7.17891 65.6265 6.29806 66.7211 5.68147C67.8332 5.06487 69.1043 4.75658 70.5342 4.75658C71.9111 4.75658 73.138 5.05607 74.2149 5.65504C75.2918 6.25402 76.1303 7.09963 76.7305 8.19188C77.3307 9.26652 77.6308 10.5085 77.6308 11.9179ZM74.4797 10.9666C74.4621 9.85669 74.0649 8.96703 73.2881 8.29759C72.5114 7.62814 71.5492 7.29342 70.4018 7.29342C69.3602 7.29342 68.4687 7.62814 67.7273 8.29759C66.9859 8.94941 66.5445 9.83907 66.4033 10.9666H74.4797Z"
    fill="white"
  />
  <path
    d="M81.8196 19.7398C81.2724 19.7398 80.8134 19.5548 80.4427 19.1849C80.072 18.8149 79.8866 18.3569 79.8866 17.8107C79.8866 17.2646 80.072 16.8066 80.4427 16.4366C80.8134 16.0667 81.2724 15.8817 81.8196 15.8817C82.3492 15.8817 82.7994 16.0667 83.1701 16.4366C83.5408 16.8066 83.7262 17.2646 83.7262 17.8107C83.7262 18.3569 83.5408 18.8149 83.1701 19.1849C82.7994 19.5548 82.3492 19.7398 81.8196 19.7398Z"
    fill="white"
  />
  <path
    d="M85.9826 12.2085C85.9826 10.7463 86.2827 9.4515 86.8829 8.32401C87.5008 7.19653 88.3305 6.32449 89.372 5.70789C90.4313 5.07368 91.6052 4.75658 92.8939 4.75658C93.8472 4.75658 94.7828 4.96798 95.7008 5.39079C96.6364 5.79598 97.3779 6.3421 97.9251 7.02916V0H100.97V19.5548H97.9251V17.3615C97.4308 18.0662 96.7423 18.6475 95.8597 19.1056C94.9946 19.5636 93.9972 19.7926 92.8674 19.7926C91.5964 19.7926 90.4313 19.4755 89.372 18.8413C88.3305 18.1895 87.5008 17.291 86.8829 16.1459C86.2827 14.9832 85.9826 13.6708 85.9826 12.2085ZM97.9251 12.2614C97.9251 11.2572 97.7133 10.3852 97.2896 9.64528C96.8836 8.90537 96.3451 8.34163 95.6743 7.95406C95.0035 7.56648 94.2797 7.3727 93.5029 7.3727C92.7262 7.3727 92.0024 7.56648 91.3316 7.95406C90.6607 8.32401 90.1135 8.87895 89.6898 9.61886C89.2838 10.3412 89.0808 11.2044 89.0808 12.2085C89.0808 13.2127 89.2838 14.0936 89.6898 14.8511C90.1135 15.6086 90.6607 16.19 91.3316 16.5952C92.0201 16.9827 92.7438 17.1765 93.5029 17.1765C94.2797 17.1765 95.0035 16.9827 95.6743 16.5952C96.3451 16.2076 96.8836 15.6439 97.2896 14.9039C97.7133 14.1464 97.9251 13.2656 97.9251 12.2614Z"
    fill="white"
  />
  <path
    d="M118.308 11.9179C118.308 12.464 118.272 12.9573 118.202 13.3977H107.054C107.142 14.5604 107.574 15.4941 108.351 16.1988C109.128 16.9035 110.081 17.2558 111.211 17.2558C112.835 17.2558 113.983 16.5776 114.653 15.221H117.911C117.469 16.5599 116.666 17.661 115.501 18.5242C114.353 19.3698 112.923 19.7926 111.211 19.7926C109.816 19.7926 108.563 19.4844 107.451 18.8678C106.356 18.2335 105.491 17.3527 104.856 16.2252C104.238 15.0801 103.929 13.7588 103.929 12.2614C103.929 10.764 104.229 9.4515 104.829 8.32401C105.447 7.17891 106.303 6.29806 107.398 5.68147C108.51 5.06487 109.781 4.75658 111.211 4.75658C112.588 4.75658 113.815 5.05607 114.892 5.65504C115.969 6.25402 116.807 7.09963 117.407 8.19188C118.008 9.26652 118.308 10.5085 118.308 11.9179ZM115.157 10.9666C115.139 9.85669 114.742 8.96703 113.965 8.29759C113.188 7.62814 112.226 7.29342 111.079 7.29342C110.037 7.29342 109.146 7.62814 108.404 8.29759C107.663 8.94941 107.221 9.83907 107.08 10.9666H115.157Z"
    fill="white"
  />
  <path
    d="M132.299 12.6537L120.409 8.53136V5.33389L135 10.8832V14.4771L120.409 20V16.7761L132.299 12.6537Z"
    fill="url(#paint0_linear_18_10)"
  />
  <defs>
    <linearGradient
      id="paint0_linear_18_10"
      x1="128.758"
      y1="5.17076"
      x2="128.758"
      y2="20.1322"
      gradientUnits="userSpaceOnUse"
    >
      <stop stop-color="#8732D1" />
      <stop offset="1" stop-color="#6A11CB" />
    </linearGradient>
  </defs>
</svg>