<svg width="62" height="62" viewBox="0 0 62 62" fill="none" xmlns="http://www.w3.org/2000/svg">
<g clip-path="url(#clip0_95_112)">
<rect width="62" height="62" rx="31" fill="white" fill-opacity="0.01"/>
<g clip-path="url(#clip1_95_112)">
<g clip-path="url(#clip2_95_112)">
<g clip-path="url(#clip3_95_112)">
<mask id="mask0_95_112" style="mask-type:luminance" maskUnits="userSpaceOnUse" x="-1" y="0" width="63" height="62">
<path d="M61.667 31C61.667 13.8792 47.7878 0 30.667 0C13.5462 0 -0.333008 13.8792 -0.333008 31C-0.333008 48.1208 13.5462 62 30.667 62C47.7878 62 61.667 48.1208 61.667 31Z" fill="white"/>
</mask>
<g mask="url(#mask0_95_112)">
<path d="M61.667 31C61.667 13.8792 47.7878 0 30.667 0C13.5462 0 -0.333008 13.8792 -0.333008 31C-0.333008 48.1208 13.5462 62 30.667 62C47.7878 62 61.667 48.1208 61.667 31Z" fill="url(#paint0_linear_95_112)"/>
<path d="M-44.3301 -50.3701H-54.3301V-40.2871M-44.3301 -50.3701V-40.2871M-44.3301 -50.3701H-34.3301M-54.3301 -40.2871H-44.3301M-54.3301 -40.2871V-30.2031M-44.3301 -40.2871H-34.3301M-44.3301 -40.2871V-30.2031M-34.3301 -50.3701V-40.2871M-34.3301 -50.3701H-24.3301M-34.3301 -40.2871H-24.3301M-34.3301 -40.2871V-30.2031M-24.3301 -50.3701V-40.2871M-24.3301 -50.3701H-14.3301M-24.3301 -40.2871H-14.3301M-24.3301 -40.2871V-30.2031M-14.3301 -50.3701V-40.2871M-14.3301 -50.3701H-4.33008M-14.3301 -40.2871H-4.33008M-14.3301 -40.2871V-30.2031M-4.33008 -50.3701V-40.2871M-4.33008 -50.3701H5.66992M-4.33008 -40.2871H5.66992M-4.33008 -40.2871V-30.2031M5.66992 -50.3701V-40.2871M5.66992 -50.3701H15.6709M5.66992 -40.2871H15.6709M5.66992 -40.2871L5.67092 -30.2031M15.6709 -50.3701V-40.2871M15.6709 -50.3701H25.6709M15.6709 -40.2871H25.6709M15.6709 -40.2871V-30.2031M5.67092 -30.2031H-4.32808M5.67092 -30.2031H15.6709M5.67092 -30.2031L5.67192 -20.1201M25.6709 -50.3701V-40.2871M25.6709 -50.3701H35.6709M25.6709 -40.2871H35.6709M25.6709 -40.2871V-30.2031M15.6709 -30.2031H25.6709M15.6709 -30.2031L15.6719 -20.1201M35.6709 -50.3701V-40.2871M35.6709 -50.3701H45.6709M35.6709 -40.2871H45.6709M35.6709 -40.2871V-30.2031M25.6709 -30.2031H35.6709M25.6709 -30.2031L25.6719 -20.1201M45.6709 -50.3701V-40.2871M45.6709 -50.3701H55.6709M45.6709 -40.2871H55.6709M45.6709 -40.2871V-30.2031M35.6709 -30.2031H45.6709M35.6709 -30.2031L35.6719 -20.1201M55.6709 -50.3701V-40.2871M55.6709 -50.3701H65.6709M55.6709 -40.2871H65.6709M55.6709 -40.2871V-30.2031M45.6709 -30.2031H55.6709M45.6709 -30.2031L45.6719 -20.1201M65.6709 -50.3701V-40.2871M65.6709 -50.3701H75.6709M65.6709 -40.2871H75.6709M65.6709 -40.2871V-30.2031M55.6709 -30.2031H65.6709M55.6709 -30.2031L55.6719 -20.1201M75.6709 -50.3701V-40.2871M75.6709 -50.3701H85.6709M75.6709 -40.2871H85.6709M75.6709 -40.2871V-30.2031M65.6709 -30.2031H75.6709M65.6709 -30.2031L65.6719 -20.1201M85.6709 -50.3701V-40.2871M85.6709 -50.3701H95.6709M85.6709 -40.2871H95.6709M85.6709 -40.2871V-30.2031M75.6709 -30.2031H85.6709M75.6709 -30.2031L75.6719 -20.1201M95.6709 -50.3701V-40.2871M95.6709 -50.3701H105.672M95.6709 -40.2871H105.672M95.6709 -40.2871L95.6719 -30.2031M85.6709 -30.2031H95.6719M85.6709 -30.2031L85.6719 -20.1201M105.672 -50.3701V-40.2871M105.672 -50.3701H115.672V-40.2871M105.672 -40.2871H115.672M105.672 -40.2871V-30.2031M95.6719 -30.2031H105.672M95.6719 -30.2031V-20.1201M115.672 -40.2871V-30.2031M105.672 -30.2031H115.672M105.672 -30.2031V-20.1201M115.672 -30.2031V-20.1201M-44.3281 -30.2031H-54.3281V-20.1201M-44.3281 -30.2031H-34.3281M-44.3281 -30.2031V-20.1201M-34.3281 -30.2031H-24.3281M-34.3281 -30.2031V-20.1201M-44.3281 -20.1201H-54.3281M-44.3281 -20.1201H-34.3281M-44.3281 -20.1201V-10.0371M-54.3281 -20.1201V-10.0371M-24.3281 -30.2031H-14.3281M-24.3281 -30.2031V-20.1201M-34.3281 -20.1201H-24.3281M-34.3281 -20.1201V-10.0371M-14.3281 -30.2031H-4.32808M-14.3281 -30.2031V-20.1201M-24.3281 -20.1201H-14.3281M-24.3281 -20.1201V-10.0371M-4.32808 -30.2031V-20.1201M-14.3281 -20.1201H-4.32808M-14.3281 -20.1201V-10.0371M-4.32808 -20.1201H5.67192M-4.32808 -20.1201V-10.0371M5.67192 -20.1201H15.6719M5.67192 -20.1201V-10.0371M15.6719 -20.1201H25.6719M15.6719 -20.1201V-10.0371M25.6719 -20.1201H35.6719M25.6719 -20.1201V-10.0371M35.6719 -20.1201H45.6719M35.6719 -20.1201V-10.0371M45.6719 -20.1201H55.6719M45.6719 -20.1201V-10.0371M55.6719 -20.1201H65.6719M55.6719 -20.1201V-10.0371M65.6719 -20.1201H75.6719M65.6719 -20.1201V-10.0371M75.6719 -20.1201H85.6719M75.6719 -20.1201V-10.0371M85.6719 -20.1201H95.6719M85.6719 -20.1201V-10.0371M95.6719 -20.1201H105.672M95.6719 -20.1201V-10.0371M105.672 -20.1201H115.672M105.672 -20.1201V-10.0371M115.672 -20.1201V-10.0371M-44.3281 -10.0371H-54.3281M-44.3281 -10.0371H-34.3281M-44.3281 -10.0371V0.0468826M-54.3281 -10.0371V0.0468826M-34.3281 -10.0371H-24.3281M-34.3281 -10.0371V0.0468826M-24.3281 -10.0371H-14.3281M-24.3281 -10.0371V0.0468826M-14.3281 -10.0371H-4.32808M-14.3281 -10.0371V0.0468826M-4.32808 -10.0371H5.67192M-4.32808 -10.0371V0.0468826M5.67192 -10.0371H15.6719M5.67192 -10.0371V0.0468826M15.6719 -10.0371H25.6719M15.6719 -10.0371V0.0468826M25.6719 -10.0371H35.6719M25.6719 -10.0371V0.0468826M35.6719 -10.0371H45.6719M35.6719 -10.0371V0.0468826M45.6719 -10.0371H55.6719M45.6719 -10.0371V0.0468826M55.6719 -10.0371H65.6719M55.6719 -10.0371V0.0468826M65.6719 -10.0371H75.6719M65.6719 -10.0371V0.0468826M75.6719 -10.0371H85.6719M75.6719 -10.0371V0.0468826M85.6719 -10.0371H95.6719M85.6719 -10.0371V0.0468826M95.6719 -10.0371H105.672M95.6719 -10.0371V0.0468826M105.672 -10.0371H115.672M105.672 -10.0371V0.0468826M115.672 -10.0371V0.0468826M-44.3281 0.0468826H-54.3281M-44.3281 0.0468826H-34.3281M-44.3281 0.0468826V10.1299M-54.3281 0.0468826V10.1299M-34.3281 0.0468826H-24.3281M-34.3281 0.0468826V10.1299M-24.3281 0.0468826H-14.3281M-24.3281 0.0468826V10.1299M-14.3281 0.0468826H-4.32808M-14.3281 0.0468826V10.1299M-4.32808 0.0468826H5.67192M-4.32808 0.0468826V10.1299M5.67192 0.0468826H15.6719M5.67192 0.0468826V10.1299M15.6719 0.0468826H25.6719M15.6719 0.0468826V10.1299M25.6719 0.0468826H35.6719M25.6719 0.0468826V10.1299M35.6719 0.0468826H45.6719M35.6719 0.0468826V10.1299M45.6719 0.0468826H55.6719M45.6719 0.0468826V10.1299M55.6719 0.0468826H65.6719M55.6719 0.0468826V10.1299M65.6719 0.0468826H75.6719M65.6719 0.0468826V10.1299M75.6719 0.0468826H85.6719M75.6719 0.0468826V10.1299M85.6719 0.0468826H95.6719M85.6719 0.0468826V10.1299M95.6719 0.0468826H105.672M95.6719 0.0468826V10.1299M105.672 0.0468826H115.672M105.672 0.0468826V10.1299M115.672 0.0468826V10.1299M-44.3281 10.1299H-54.3281M-44.3281 10.1299H-34.3281M-44.3281 10.1299V20.2129M-54.3281 10.1299V20.2129M-34.3281 10.1299H-24.3281M-34.3281 10.1299V20.2129M-24.3281 10.1299H-14.3281M-24.3281 10.1299V20.2129M-14.3281 10.1299H-4.32808M-14.3281 10.1299V20.2129M-4.32808 10.1299H5.67192M-4.32808 10.1299V20.2129M5.67192 10.1299H15.6719M5.67192 10.1299V20.2129M15.6719 10.1299H25.6719M15.6719 10.1299V20.2129M25.6719 10.1299H35.6719M25.6719 10.1299V20.2129M35.6719 10.1299H45.6719M35.6719 10.1299V20.2129M45.6719 10.1299H55.6719M45.6719 10.1299V20.2129M55.6719 10.1299H65.6719M55.6719 10.1299V20.2129M65.6719 10.1299H75.6719M65.6719 10.1299V20.2129M75.6719 10.1299H85.6719M75.6719 10.1299V20.2129M85.6719 10.1299H95.6719M85.6719 10.1299V20.2129M95.6719 10.1299H105.672M95.6719 10.1299V20.2129M105.672 10.1299H115.672M105.672 10.1299V20.2129M115.672 10.1299V20.2129M-44.3281 20.2129H-54.3281M-44.3281 20.2129H-34.3281M-44.3281 20.2129V30.2969M-54.3281 20.2129V30.2969M-34.3281 20.2129H-24.3281M-34.3281 20.2129V30.2969M-24.3281 20.2129H-14.3281M-24.3281 20.2129V30.2969M-14.3281 20.2129H-4.32808M-14.3281 20.2129V30.2969M-4.32808 20.2129H5.67192M-4.32808 20.2129V30.2969M5.67192 20.2129H15.6719M5.67192 20.2129V30.2969M15.6719 20.2129H25.6719M15.6719 20.2129V30.2969M25.6719 20.2129H35.6719M25.6719 20.2129V30.2969M35.6719 20.2129H45.6719M35.6719 20.2129V30.2969M45.6719 20.2129H55.6719M45.6719 20.2129V30.2969M55.6719 20.2129H65.6719M55.6719 20.2129V30.2969M65.6719 20.2129H75.6719M65.6719 20.2129V30.2969M75.6719 20.2129H85.6719M75.6719 20.2129V30.2969M85.6719 20.2129H95.6719M85.6719 20.2129V30.2969M95.6719 20.2129H105.672M95.6719 20.2129V30.2969M105.672 20.2129H115.672M105.672 20.2129V30.2969M115.672 20.2129V30.2969M-44.3281 30.2969H-54.3281M-44.3281 30.2969H-34.3281M-44.3281 30.2969V40.3799M-54.3281 30.2969V40.3799M-34.3281 30.2969H-24.3281M-34.3281 30.2969V40.3799M-24.3281 30.2969H-14.3281M-24.3281 30.2969V40.3799M-14.3281 30.2969H-4.32808M-14.3281 30.2969V40.3799M-4.32808 30.2969H5.67192M-4.32808 30.2969V40.3799M5.67192 30.2969H15.6719M5.67192 30.2969V40.3799M15.6719 30.2969H25.6719M15.6719 30.2969V40.3799M25.6719 30.2969H35.6719M25.6719 30.2969V40.3799M35.6719 30.2969H45.6719M35.6719 30.2969V40.3799M45.6719 30.2969H55.6719M45.6719 30.2969V40.3799M55.6719 30.2969H65.6719M55.6719 30.2969V40.3799M65.6719 30.2969H75.6719M65.6719 30.2969V40.3799M75.6719 30.2969H85.6719M75.6719 30.2969V40.3799M85.6719 30.2969H95.6719M85.6719 30.2969V40.3799M95.6719 30.2969H105.672M95.6719 30.2969V40.3799M105.672 30.2969H115.672M105.672 30.2969V40.3799M115.672 30.2969V40.3799M-44.3281 40.3799H-54.3281M-44.3281 40.3799H-34.3281M-44.3281 40.3799V50.4629M-54.3281 40.3799V50.4629M-34.3281 40.3799H-24.3281M-34.3281 40.3799V50.4629M-24.3281 40.3799H-14.3281M-24.3281 40.3799V50.4629M-14.3281 40.3799H-4.32808M-14.3281 40.3799V50.4629M-4.32808 40.3799H5.67192M-4.32808 40.3799V50.4629M5.67192 40.3799H15.6719M5.67192 40.3799V50.4629M15.6719 40.3799H25.6719M15.6719 40.3799V50.4629M25.6719 40.3799H35.6719M25.6719 40.3799V50.4629M35.6719 40.3799H45.6719M35.6719 40.3799V50.4629M45.6719 40.3799H55.6719M45.6719 40.3799V50.4629M55.6719 40.3799H65.6719M55.6719 40.3799V50.4629M65.6719 40.3799H75.6719M65.6719 40.3799V50.4629M75.6719 40.3799H85.6719M75.6719 40.3799V50.4629M85.6719 40.3799H95.6719M85.6719 40.3799V50.4629M95.6719 40.3799H105.672M95.6719 40.3799V50.4629M105.672 40.3799H115.672M105.672 40.3799V50.4629M115.672 40.3799V50.4629M-44.3281 50.4629H-54.3281M-44.3281 50.4629H-34.3281M-44.3281 50.4629V60.5469M-54.3281 50.4629V60.5469M-34.3281 50.4629H-24.3281M-34.3281 50.4629V60.5469M-24.3281 50.4629H-14.3281M-24.3281 50.4629V60.5469M-14.3281 50.4629H-4.32808M-14.3281 50.4629V60.5469M-4.32808 50.4629H5.67192M-4.32808 50.4629V60.5469M5.67192 50.4629H15.6719M5.67192 50.4629V60.5469M15.6719 50.4629H25.6719M15.6719 50.4629V60.5469M25.6719 50.4629H35.6719M25.6719 50.4629V60.5469M35.6719 50.4629H45.6719M35.6719 50.4629V60.5469M45.6719 50.4629H55.6719M45.6719 50.4629V60.5469M55.6719 50.4629H65.6719M55.6719 50.4629V60.5469M65.6719 50.4629H75.6719M65.6719 50.4629V60.5469M75.6719 50.4629H85.6719M75.6719 50.4629V60.5469M85.6719 50.4629H95.6719M85.6719 50.4629V60.5469M95.6719 50.4629H105.672M95.6719 50.4629V60.5469M105.672 50.4629H115.672M105.672 50.4629V60.5469M115.672 50.4629V60.5469M-44.3281 60.5469H-54.3281M-44.3281 60.5469H-34.3281M-44.3281 60.5469V70.6299M-54.3281 60.5469V70.6299H-44.3281M-34.3281 60.5469H-24.3281M-34.3281 60.5469V70.6299M-24.3281 60.5469H-14.3281M-24.3281 60.5469V70.6299M-14.3281 60.5469H-4.32808M-14.3281 60.5469V70.6299M-4.32808 60.5469H5.67192M-4.32808 60.5469V70.6299M5.67192 60.5469H15.6719M5.67192 60.5469V70.6299M15.6719 60.5469H25.6719M15.6719 60.5469V70.6299M25.6719 60.5469H35.6719M25.6719 60.5469V70.6299M35.6719 60.5469H45.6719M35.6719 60.5469V70.6299M45.6719 60.5469H55.6719M45.6719 60.5469V70.6299M55.6719 60.5469H65.6719M55.6719 60.5469V70.6299M65.6719 60.5469H75.6719M65.6719 60.5469V70.6299M75.6719 60.5469H85.6719M75.6719 60.5469V70.6299M85.6719 60.5469H95.6719M85.6719 60.5469V70.6299M95.6719 60.5469H105.672M95.6719 60.5469V70.6299M105.672 60.5469H115.672M105.672 60.5469V70.6299M115.672 60.5469V70.6299H105.672M-44.3281 70.6299H-34.3281M-34.3281 70.6299H-24.3281M-24.3281 70.6299H-14.3281M-14.3281 70.6299H-4.32808M-4.32808 70.6299H5.67192M5.67192 70.6299H15.6719M15.6719 70.6299H25.6719M25.6719 70.6299H35.6719M35.6719 70.6299H45.6719M45.6719 70.6299H55.6719M55.6719 70.6299H65.6719M65.6719 70.6299H75.6719M75.6719 70.6299H85.6719M85.6719 70.6299H95.6719M95.6719 70.6299H105.672" stroke="url(#paint1_radial_95_112)" stroke-opacity="0.2"/>
</g>
</g>
</g>
</g>
<g clip-path="url(#clip4_95_112)">
<g clip-path="url(#clip5_95_112)">
<path d="M24.6852 28.3333C25.5765 24.7778 27.8049 23 31.3704 23C36.7185 23 37.387 27 40.0611 27.6667C41.8438 28.1111 43.4037 27.4444 44.7407 25.6667C43.8494 29.2222 41.621 31 38.0556 31C32.7074 31 32.0389 27 29.3648 26.3333C27.5821 25.8889 26.0222 26.5556 24.6852 28.3333ZM18 36.3333C18.8914 32.7778 21.1198 31 24.6852 31C30.0333 31 30.7019 35 33.3759 35.6667C35.1586 36.1111 36.7185 35.4444 38.0556 33.6667C37.1642 37.2222 34.9358 39 31.3704 39C26.0222 39 25.3537 35 22.6796 34.3333C20.8969 33.8889 19.337 34.5556 18 36.3333Z" fill="white"/>
</g>
</g>
<rect x="1" y="1" width="60" height="60" rx="30" stroke="white" stroke-width="2"/>
</g>
<defs>
<linearGradient id="paint0_linear_95_112" x1="30.666" y1="0" x2="30.666" y2="62" gradientUnits="userSpaceOnUse">
<stop stop-color="#460C7A"/>
<stop offset="1" stop-color="#63329D"/>
</linearGradient>
<radialGradient id="paint1_radial_95_112" cx="0" cy="0" r="1" gradientUnits="userSpaceOnUse" gradientTransform="translate(30.6699 -50.3701) rotate(90) scale(128.562 100.243)">
<stop stop-color="white"/>
<stop offset="0.804" stop-color="white" stop-opacity="0"/>
</radialGradient>
<clipPath id="clip0_95_112">
<rect width="62" height="62" rx="31" fill="white"/>
</clipPath>
<clipPath id="clip1_95_112">
<rect width="62" height="62" rx="31" fill="white"/>
</clipPath>
<clipPath id="clip2_95_112">
<rect width="62" height="62" fill="white"/>
</clipPath>
<clipPath id="clip3_95_112">
<rect width="63" height="62" fill="white" transform="translate(-0.5)"/>
</clipPath>
<clipPath id="clip4_95_112">
<rect width="34" height="34" fill="white" transform="translate(14 14)"/>
</clipPath>
<clipPath id="clip5_95_112">
<rect width="34" height="34" fill="white" transform="translate(14 14)"/>
</clipPath>
</defs>
</svg>
